<svg viewBox="0 0 32 32" xmlns="http://www.w3.org/2000/svg"><path d="m12.65625 4.90625-.78125.09375s-3.503906.382813-6.0625 2.4375h-.03125l-.03125.03125c-.574219.527344-.824219 1.175781-1.21875 2.125s-.816406 2.160156-1.1875 3.5c-.742187 2.683594-1.34375 5.933594-1.34375 8.90625v.25l.125.25c.925781 1.625 2.570313 2.660156 4.09375 3.375 1.523438.714844 2.839844 1.09375 3.75 1.125l.59375.03125.3125-.53125 1.09375-1.9375c1.160156.261719 2.496094.4375 4.03125.4375s2.871094-.175781 4.03125-.4375l1.09375 1.9375.3125.53125.59375-.03125c.910156-.03125 2.226563-.410156 3.75-1.125 1.523438-.714844 3.167969-1.75 4.09375-3.375l.125-.25v-.25c0-2.972656-.601562-6.222656-1.34375-8.90625-.371094-1.339844-.792969-2.550781-1.1875-3.5s-.644531-1.597656-1.21875-2.125l-.03125-.03125h-.03125c-2.558594-2.054687-6.0625-2.4375-6.0625-2.4375l-.78125-.09375-.28125.71875s-.289062.730469-.46875 1.5625c-1.132812-.152344-2.058594-.1875-2.59375-.1875s-1.460937.035156-2.59375.1875c-.179687-.832031-.46875-1.5625-.46875-1.5625zm-1.375 2.28125c.042969.140625.085938.261719.125.375-1.292969.320313-2.671875.808594-3.9375 1.59375l1.0625 1.6875c2.59375-1.609375 6.320313-1.84375 7.46875-1.84375 1.148438 0 4.875.234375 7.46875 1.84375l1.0625-1.6875c-1.265625-.785156-2.644531-1.273437-3.9375-1.59375.039063-.113281.082031-.234375.125-.375.933594.1875 2.714844.617188 4.1875 1.78125-.007812.003906.375.582031.71875 1.40625.351563.847656.742188 1.976563 1.09375 3.25.675781 2.441406 1.207031 5.414063 1.25 8.03125-.628906.960938-1.796875 1.828125-3.03125 2.40625-1.078125.503906-1.929687.6875-2.4375.78125l-.5-.84375c.296875-.109375.589844-.230469.84375-.34375 1.539063-.675781 2.375-1.40625 2.375-1.40625l-1.3125-1.5s-.5625.515625-1.875 1.09375-3.316406 1.15625-6.03125 1.15625-4.71875-.578125-6.03125-1.15625-1.875-1.09375-1.875-1.09375l-1.3125 1.5s.835938.730469 2.375 1.40625c.253906.113281.546875.234375.84375.34375l-.5.84375c-.507812-.09375-1.359375-.277344-2.4375-.78125-1.234375-.578125-2.402344-1.445312-3.03125-2.40625.042969-2.617187.574219-5.589844 1.25-8.03125.351563-1.273437.742188-2.402344 1.09375-3.25.34375-.824219.726563-1.402344.71875-1.40625 1.472656-1.164062 3.253906-1.59375 4.1875-1.78125zm1.21875 6.8125c-.773437 0-1.457031.441406-1.875 1s-.625 1.246094-.625 2 .207031 1.441406.625 2 1.101563 1 1.875 1c.773438 0 1.457031-.441406 1.875-1s.625-1.246094.625-2-.207031-1.441406-.625-2-1.101562-1-1.875-1zm7 0c-.773437 0-1.457031.441406-1.875 1s-.625 1.246094-.625 2 .207031 1.441406.625 2 1.101563 1 1.875 1c.773438 0 1.457031-.441406 1.875-1s.625-1.246094.625-2-.207031-1.441406-.625-2-1.101562-1-1.875-1zm-7 2c.054688 0 .125.019531.25.1875s.25.460938.25.8125c0 .351563-.125.644531-.25.8125s-.195312.1875-.25.1875c-.054687 0-.125-.019531-.25-.1875s-.25-.460937-.25-.8125c0-.351562.125-.644531.25-.8125s.195313-.1875.25-.1875zm7 0c.054688 0 .125.019531.25.1875s.25.460938.25.8125c0 .351563-.125.644531-.25.8125s-.195312.1875-.25.1875c-.054687 0-.125-.019531-.25-.1875s-.25-.460937-.25-.8125c0-.351562.125-.644531.25-.8125s.195313-.1875.25-.1875z"/></svg>