<?xml version="1.0" encoding="UTF-8"?>
<svg xmlns="http://www.w3.org/2000/svg" xmlns:xlink="http://www.w3.org/1999/xlink" width="50px" height="50px" viewBox="0 0 50 50" version="1.1">
<g id="surface1">
<path style=" stroke:none;fill-rule:nonzero;fill:rgb(0.392157%,0%,0.784314%);fill-opacity:1;" d="M 26.292969 49.96875 C 11.792969 49.96875 0 38.175781 0 23.679688 C 0 13.640625 5.589844 4.621094 14.585938 0.140625 C 14.992188 -0.0625 15.480469 0.015625 15.796875 0.335938 C 16.117188 0.652344 16.199219 1.140625 16 1.542969 C 14.359375 4.878906 13.527344 8.464844 13.527344 12.203125 C 13.527344 25.539062 24.375 36.390625 37.714844 36.390625 C 41.488281 36.390625 45.109375 35.539062 48.480469 33.863281 C 48.886719 33.660156 49.371094 33.738281 49.691406 34.058594 C 50.007812 34.375 50.089844 34.863281 49.890625 35.265625 C 45.433594 44.335938 36.386719 49.96875 26.292969 49.96875 Z M 12.882812 3.546875 C 6.164062 8 2.105469 15.46875 2.105469 23.679688 C 2.105469 37.015625 12.953125 47.867188 26.292969 47.867188 C 34.550781 47.867188 42.046875 43.765625 46.492188 36.988281 C 43.6875 37.988281 40.746094 38.492188 37.714844 38.492188 C 23.21875 38.492188 11.421875 26.699219 11.421875 12.203125 C 11.421875 9.214844 11.914062 6.316406 12.882812 3.546875 Z M 12.882812 3.546875 "/>
</g>
</svg>
