<?xml version="1.0" encoding="UTF-8"?><svg id="a" xmlns="http://www.w3.org/2000/svg" viewBox="0 0 92.14 65.77"><defs><style>.c{fill:#010002;}</style></defs><g id="b"><path class="c" d="M45.31,58.23c-14.31,0-25.94-11.6-25.94-25.85,0-9.87,5.52-18.74,14.39-23.15,.4-.2,.88-.12,1.19,.19,.32,.31,.4,.79,.2,1.19-1.62,3.28-2.44,6.81-2.44,10.48,0,13.11,10.7,23.79,23.86,23.79,3.72,0,7.3-.84,10.62-2.49,.4-.2,.88-.12,1.19,.19s.39,.79,.2,1.19c-4.4,8.92-13.32,14.46-23.28,14.46ZM32.08,12.58c-6.63,4.38-10.63,11.72-10.63,19.8,0,13.11,10.7,23.79,23.86,23.79,8.15,0,15.54-4.03,19.93-10.7-2.77,.98-5.67,1.48-8.66,1.48-14.3,0-25.94-11.6-25.94-25.85,0-2.94,.49-5.79,1.44-8.51Z"/></g></svg>